<svg width="10" height="10" viewBox="0 0 10 10" fill="none" xmlns="http://www.w3.org/2000/svg">
    <circle cx="5" cy="5" r="5" fill="#FFC800" />
    <path
        d="M5.10659 7.143C4.77179 7.143 4.47954 7.05448 4.22873 6.87991C3.97791 6.70533 3.7954 6.47174 3.68007 6.18283C3.56586 5.89392 3.54122 5.58165 3.60841 5.24602L4.26792 1.87007C4.28696 1.74959 4.34182 1.64632 4.43252 1.55903C4.52321 1.47297 4.64079 1.42871 4.78411 1.42871C4.89384 1.42871 4.99238 1.46067 5.07747 1.52337C5.16369 1.58607 5.22527 1.66722 5.26334 1.7668C5.30142 1.86638 5.30813 1.97088 5.28462 2.08153L5.05508 3.25438H5.32717L4.99797 3.41174C5.05508 3.31708 5.13122 3.23348 5.22752 3.15972C5.3227 3.08595 5.42794 3.03186 5.54327 2.99498C5.65749 2.95809 5.77954 2.93965 5.9083 2.93965C6.17592 2.93965 6.41218 3.03063 6.61821 3.21135C6.82312 3.39208 6.97316 3.63181 7.06609 3.93178C7.15903 4.23053 7.16799 4.5428 7.09073 4.86859L6.91829 5.71811C6.85559 6.00088 6.73913 6.25045 6.5667 6.46559C6.39426 6.68074 6.18376 6.84671 5.93182 6.96473C5.681 7.08276 5.40555 7.14177 5.10435 7.14177L5.10659 7.143ZM5.17825 6.19021C5.29806 6.19021 5.40779 6.16316 5.50745 6.10784C5.6071 6.05251 5.69444 5.97506 5.76946 5.87548C5.84336 5.7759 5.89263 5.66033 5.91614 5.52878L6.07403 4.70262C6.10314 4.55017 6.09642 4.41248 6.05611 4.28954C6.0158 4.1666 5.94973 4.06825 5.85904 3.99448C5.76834 3.92072 5.65861 3.88384 5.52984 3.88384C5.41563 3.88384 5.30813 3.91211 5.20736 3.9699C5.10658 4.02768 5.02149 4.10636 4.94983 4.20594C4.87816 4.30553 4.83002 4.42109 4.8065 4.55263L4.64862 5.3788C4.61951 5.52632 4.62399 5.66156 4.65982 5.78819C4.69565 5.91359 4.75947 6.01194 4.85017 6.08325C4.94087 6.15455 5.0506 6.18897 5.17937 6.18897L5.17825 6.19021Z"
        fill="#0F121D" />
    <path
        d="M2.90949 7.15283C3.19873 7.46488 3.52757 7.69495 3.88402 7.84792C4.23927 8.00089 4.61852 8.07553 4.99897 8.07676C5.37942 8.07676 5.75868 8.00211 6.11393 7.84792C6.47038 7.69495 6.79922 7.46488 7.08846 7.15283C7.10047 7.13937 7.11967 7.13937 7.13287 7.15161C7.14247 7.16018 7.14487 7.17364 7.14127 7.18465C6.99725 7.60317 6.68161 7.96295 6.29755 8.20403C5.9123 8.44633 5.45504 8.57115 5.00017 8.57115C4.54531 8.57115 4.08805 8.44633 3.70279 8.20403C3.31874 7.96417 3.0031 7.60439 2.85908 7.18465C2.85308 7.16874 2.86148 7.15039 2.87828 7.14427C2.89028 7.1406 2.90349 7.14426 2.91069 7.15283H2.90949Z"
        fill="#0F121D" />
</svg>