<svg width="12" height="13" viewBox="0 0 12 13" fill="none" xmlns="http://www.w3.org/2000/svg">
    <path
        d="M6 12.5C9.31372 12.5 12 9.81371 12 6.5C12 3.18629 9.31372 0.5 6 0.5C2.68629 0.5 0 3.18629 0 6.5C0 9.81371 2.68629 12.5 6 12.5Z"
        fill="#0F121D" />
    <path
        d="M5.99988 10.1863C8.03581 10.1863 9.68628 8.53583 9.68628 6.49986C9.68628 4.46394 8.03581 2.81348 5.99988 2.81348C3.96393 2.81348 2.31348 4.46394 2.31348 6.49986C2.31348 8.53583 3.96393 10.1863 5.99988 10.1863Z"
        fill="#FFC800" />
    <path
        d="M6.00004 0.604267C9.24577 0.608537 11.8735 3.24332 11.8692 6.48915C11.8648 9.73497 9.23017 12.3627 5.98437 12.3583C2.73856 12.354 0.110836 9.7193 0.115182 6.47348C0.118347 4.11425 1.53192 1.98558 3.70518 1.06752C4.43112 0.760269 5.21169 0.602681 6.00004 0.604267ZM6.00004 0.5C2.68603 0.5 0 3.18597 0 6.49995C0 9.81399 2.68603 12.5 6.00004 12.5C9.314 12.5 12 9.81374 12 6.49995C12 3.1862 9.31374 0.5 6.00004 0.5Z"
        fill="#FFC800" />
    <path
        d="M6.00006 1.90547C8.52921 1.90879 10.5768 3.96187 10.5734 6.49109C10.57 9.02029 8.51705 11.0679 5.98786 11.0645C3.45865 11.0611 1.41107 9.00809 1.41446 6.47888C1.41693 4.64052 2.51841 2.98181 4.21186 2.26644C4.77753 2.02703 5.38577 1.90423 6.00006 1.90547ZM6.00006 1.82422C3.41772 1.82422 1.32471 3.91718 1.32471 6.49951C1.32471 9.08187 3.41772 11.1749 6.00006 11.1749C8.58237 11.1749 10.6753 9.08168 10.6753 6.49951C10.6753 3.91736 8.58217 1.82422 6.00006 1.82422Z"
        fill="#FFC800" />
    <path
        d="M6.12733 5.36943C6.03506 5.36908 5.91021 5.36831 5.75957 5.36621L5.58398 5.8478H5.95466L6.12733 5.36943ZM5.64467 5.80533L5.78914 5.40907C5.88257 5.41027 5.9757 5.41113 6.06694 5.4116L5.92513 5.80533H5.64467Z"
        fill="#FFC800" />
    <path d="M5.34717 6.02564L5.42591 6.02538L5.47681 5.88574H5.39763L5.34717 6.02564Z" fill="#FFC800" />
    <path
        d="M5.17725 6.02658L5.28144 6.02615L5.33212 5.88574H5.2281C5.21115 5.93273 5.19424 5.97968 5.17725 6.02658ZM5.25783 5.92827H5.27152L5.25144 5.98375H5.23775L5.25783 5.92827Z"
        fill="#FFC800" />
    <path
        d="M5.51978 6.02478H5.63639C5.73299 6.02478 5.8178 6.02499 5.89088 6.02546L5.94123 5.88574H5.57043L5.51978 6.02478ZM5.60026 5.92801H5.88093L5.86122 5.98272C5.7884 5.98238 5.71293 5.98221 5.63652 5.98221H5.58059L5.60026 5.92801Z"
        fill="#FFC800" />
    <path
        d="M6.74111 5.7959C6.72166 5.81238 6.70048 5.82675 6.67807 5.8389C6.6254 5.86739 6.57166 5.87958 6.45298 5.88584C6.41823 5.88764 6.37824 5.88898 6.33367 5.88898C6.29664 5.88898 6.25648 5.88807 6.2135 5.88584L6.16284 6.02647C6.28906 6.02325 6.40871 6.00733 6.53741 5.94219C6.61254 5.90438 6.68124 5.85503 6.74111 5.7959ZM6.2243 5.98136L6.24286 5.92996C6.27316 5.93111 6.30354 5.93172 6.33367 5.93172C6.37413 5.93172 6.41501 5.93064 6.45521 5.9285L6.46713 5.92785C6.3812 5.963 6.30058 5.97617 6.2243 5.98136Z"
        fill="#FFC800" />
    <path
        d="M6.43385 5.84857C6.53671 5.84249 6.58951 5.83884 6.64959 5.81099C6.69442 5.79033 6.77838 5.75163 6.79985 5.67033C6.82586 5.57141 6.74079 5.48081 6.72472 5.46401C6.64728 5.38177 6.53992 5.36621 6.46938 5.36621C6.44576 5.36613 6.42224 5.36789 6.39888 5.37157L6.22681 5.84844C6.25715 5.85029 6.29186 5.85157 6.33035 5.85157C6.36228 5.8517 6.39695 5.85076 6.43385 5.84857ZM6.42991 5.41049C6.44062 5.40954 6.45404 5.40873 6.46929 5.40873C6.53538 5.40873 6.62795 5.42339 6.69369 5.4932C6.71923 5.52003 6.77666 5.59079 6.75858 5.65957C6.74246 5.72154 6.67308 5.75347 6.63176 5.77228C6.57969 5.79633 6.53516 5.79984 6.43136 5.80601C6.39785 5.80799 6.36382 5.80901 6.33022 5.80901C6.31565 5.80901 6.30091 5.80901 6.28621 5.80841L6.42991 5.41049Z"
        fill="#FFC800" />
    <path d="M6.30567 5.37012C6.27919 5.37012 6.25109 5.37012 6.22126 5.37012L6.04858 5.84815H6.13308L6.30567 5.37012Z"
        fill="#FFC800" />
    <path d="M6.06865 6.02701L6.11959 5.88574H6.03505L5.98438 6.02628L6.02137 6.02658L6.06865 6.02701Z"
        fill="#FFC800" />
    <path
        d="M4.16983 2.22768C4.75126 1.98079 5.36986 1.85579 6.00848 1.85579V0.500005H5.99995C5.18913 0.498985 4.38659 0.662897 3.64111 0.981757L4.16983 2.22768Z"
        fill="#FFC800" />
    <path
        d="M8.91368 1.25391L8.28955 2.37912C8.84305 2.68558 9.32918 3.10035 9.71888 3.59874L10.7288 2.80671C10.2334 2.17323 9.61624 1.64527 8.91368 1.25391Z"
        fill="#FFC800" />
    <path
        d="M10.7202 6.5038C10.7204 6.86882 10.6785 7.23263 10.5952 7.58796L11.8404 7.88076C12.0239 7.09845 12.0494 6.28742 11.9156 5.49512L10.6537 5.70876C10.6981 5.97152 10.7203 6.23745 10.7202 6.5038Z"
        fill="#FFC800" />
    <path
        d="M10.4849 10.4854L9.52923 9.63477C9.10944 10.1077 8.59867 10.4912 8.02734 10.7622L8.57729 11.9197C9.30251 11.5738 9.95111 11.086 10.4849 10.4854Z"
        fill="#FFC800" />
    <path
        d="M3.38062 11.8996C4.10405 12.2512 4.89108 12.4529 5.69444 12.4926L5.76061 11.2087C5.13031 11.1773 4.51287 11.0183 3.94583 10.7412L3.38062 11.8996Z"
        fill="#FFC800" />
    <path
        d="M0.160889 7.88384C0.345356 8.6641 0.68504 9.39923 1.15971 10.0454L2.17892 9.31283C1.80982 8.8009 1.54855 8.21937 1.41089 7.60352L0.160889 7.88384Z"
        fill="#FFC800" />
    <path
        d="M0.205811 4.93753L1.47105 5.29213C1.64114 4.68408 1.93278 4.11688 2.32834 3.62477L1.28487 2.78906C0.783419 3.4248 0.416362 4.15569 0.205811 4.93753Z"
        fill="#FFC800" />
    <path
        d="M4.16983 2.22768C4.75126 1.98079 5.36986 1.85579 6.00848 1.85579V0.500005H5.99995C5.18913 0.498985 4.38659 0.662897 3.64111 0.981757L4.16983 2.22768Z"
        fill="#FFC800" />
    <path
        d="M5.90063 7.83301C5.66657 7.83301 5.46226 7.77105 5.28691 7.64884C5.11157 7.52664 4.98397 7.36313 4.90334 7.16089C4.8235 6.95865 4.80628 6.74006 4.85324 6.50512L5.31431 4.14196C5.32762 4.05762 5.36598 3.98533 5.42938 3.92423C5.49279 3.86399 5.57498 3.83301 5.67518 3.83301C5.7519 3.83301 5.82078 3.85538 5.88028 3.89927C5.94055 3.94316 5.9836 3.99996 6.01022 4.06967C6.03683 4.13938 6.04153 4.21253 6.02509 4.28998L5.86462 5.11098H6.05484L5.8247 5.22113C5.86462 5.15486 5.91785 5.09635 5.98517 5.04471C6.05171 4.99308 6.12529 4.95521 6.20592 4.92939C6.28576 4.90358 6.37109 4.89067 6.46111 4.89067C6.6482 4.89067 6.81337 4.95435 6.95741 5.08086C7.10066 5.20736 7.20555 5.37518 7.27053 5.58516C7.3355 5.79428 7.34176 6.01287 7.28775 6.24092L7.1672 6.83559C7.12336 7.03352 7.04195 7.20822 6.9214 7.35882C6.80085 7.50943 6.65368 7.62561 6.47755 7.70822C6.3022 7.79084 6.10963 7.83215 5.89906 7.83215L5.90063 7.83301ZM5.95073 7.16605C6.03449 7.16605 6.1112 7.14712 6.18087 7.1084C6.25054 7.06967 6.3116 7.01545 6.36404 6.94574C6.41571 6.87604 6.45015 6.79514 6.46659 6.70306L6.57697 6.12474C6.59732 6.01803 6.59262 5.92165 6.56444 5.83559C6.53626 5.74953 6.49007 5.68068 6.42667 5.62905C6.36326 5.57741 6.28655 5.55159 6.19652 5.55159C6.11668 5.55159 6.04153 5.57139 5.97108 5.61184C5.90063 5.65228 5.84113 5.70736 5.79104 5.77707C5.74094 5.84678 5.70728 5.92767 5.69084 6.01975L5.58046 6.59807C5.56011 6.70134 5.56324 6.796 5.58829 6.88464C5.61334 6.97242 5.65796 7.04127 5.72137 7.09118C5.78477 7.1411 5.86149 7.16519 5.95151 7.16519L5.95073 7.16605Z"
        fill="#0F121D" />
    <path
        d="M4.36447 7.83921C4.56668 8.05765 4.79658 8.21869 5.04577 8.32577C5.29413 8.43285 5.55926 8.4851 5.82524 8.48596C6.09121 8.48596 6.35635 8.4337 6.60471 8.32577C6.8539 8.21869 7.0838 8.05765 7.28601 7.83921C7.2944 7.82979 7.30782 7.82979 7.31705 7.83835C7.32377 7.84435 7.32544 7.85377 7.32293 7.86148C7.22224 8.15444 7.00157 8.40629 6.73308 8.57505C6.46375 8.74466 6.14407 8.83203 5.82608 8.83203C5.50808 8.83203 5.18841 8.74466 4.91908 8.57505C4.65058 8.40715 4.42992 8.1553 4.32923 7.86148C4.32504 7.85035 4.33091 7.8375 4.34266 7.83321C4.35105 7.83064 4.36028 7.83321 4.36531 7.83921H4.36447Z"
        fill="#0F121D" />
</svg>