<svg width="154" height="154" viewBox="0 0 154 154" fill="none" xmlns="http://www.w3.org/2000/svg">
<path d="M77.0001 154C119.526 154 154 119.526 154 77C154 34.4741 119.526 0 77.0001 0C34.4741 0 0 34.4741 0 77C0 119.526 34.4741 154 77.0001 154Z" fill="#131624"/>
<path d="M76.9988 124.309C103.127 124.309 124.308 103.128 124.308 77C124.308 50.8723 103.127 29.6914 76.9988 29.6914C50.8708 29.6914 29.6899 50.8723 29.6899 77C29.6899 103.128 50.8708 124.309 76.9988 124.309Z" fill="#FFC800"/>
<path d="M77.0006 1.33809C118.654 1.39289 152.377 35.2059 152.321 76.8608C152.265 118.515 118.454 152.238 76.7995 152.182C35.1449 152.126 1.42239 118.314 1.47817 76.6597C1.51878 46.3828 19.6597 19.0649 47.5499 7.28322C56.8661 3.34012 66.8835 1.31774 77.0006 1.33809ZM77.0006 0C34.4707 0 0 34.4699 0 76.9994C0 119.53 34.4707 154 77.0006 154C119.53 154 154 119.526 154 76.9994C154 34.4729 119.526 0 77.0006 0Z" fill="#FFC800"/>
<path d="M77.0004 18.0427C109.458 18.0854 135.735 44.4332 135.692 76.8915C135.648 109.35 109.302 135.627 76.8438 135.583C44.3856 135.54 18.1084 109.193 18.1518 76.7348C18.1835 53.1425 32.3192 31.8558 54.0519 22.6752C61.3112 19.6027 69.117 18.0268 77.0004 18.0427ZM77.0004 17C43.8603 17 17 43.8597 17 76.9995C17 110.14 43.8603 137 77.0004 137C110.14 137 137 110.137 137 76.9995C137 43.862 110.138 17 77.0004 17Z" fill="#FFC800"/>
<path d="M78.6353 62.4966C77.4511 62.4922 75.849 62.4823 73.9157 62.4553L71.6624 68.6357H76.4193L78.6353 62.4966ZM72.4412 68.0906L74.2952 63.0053C75.4942 63.0207 76.6894 63.0317 77.8603 63.0378L76.0404 68.0906H72.4412Z" fill="#FFC800"/>
<path d="M68.6223 70.9082L69.6316 70.9049L70.2839 69.1152H69.2691L68.6223 70.9082Z" fill="#FFC800"/>
<path d="M66.4412 70.9203L67.7766 70.9148L68.4261 69.1152H67.0929C66.8757 69.7175 66.659 70.3192 66.4412 70.9203ZM67.4741 69.6603H67.6495L67.3921 70.3714H67.2167L67.4741 69.6603Z" fill="#FFC800"/>
<path d="M70.8367 70.9026H72.3332C73.5729 70.9026 74.6614 70.9054 75.5991 70.9114L76.2454 69.1206H71.4868L70.8367 70.9026ZM71.8696 69.6624H75.4715L75.2185 70.3636C74.2841 70.3592 73.3155 70.357 72.3349 70.357H71.6171L71.8696 69.6624Z" fill="#FFC800"/>
<path d="M86.51 67.9602C86.2603 68.1714 85.9886 68.3557 85.701 68.5113C85.025 68.8765 84.3353 69.0327 82.8124 69.113C82.3663 69.1361 81.8532 69.1532 81.2812 69.1532C80.806 69.1532 80.2906 69.1416 79.739 69.113L79.0889 70.9154C80.7086 70.8741 82.2442 70.6701 83.8959 69.8352C84.86 69.3506 85.7417 68.7181 86.51 67.9602ZM79.8776 70.3373L80.1157 69.6784C80.5046 69.6933 80.8945 69.701 81.2812 69.701C81.8004 69.701 82.3251 69.6872 82.841 69.6597L82.9939 69.6515C81.8911 70.1019 80.8566 70.2708 79.8776 70.3373Z" fill="#FFC800"/>
<path d="M82.5682 68.6346C83.8882 68.5565 84.5658 68.5098 85.3369 68.1523C85.9122 67.8872 86.9896 67.3905 87.2652 66.3472C87.599 65.0778 86.5073 63.9151 86.301 63.6995C85.3072 62.644 83.9294 62.4444 83.0241 62.4444C82.7211 62.4433 82.4191 62.4658 82.1194 62.5131L79.9111 68.633C80.3005 68.6566 80.746 68.6731 81.2399 68.6731C81.6497 68.6748 82.0946 68.6627 82.5682 68.6346ZM82.5176 63.0125C82.6551 63.0004 82.8272 62.99 83.023 62.99C83.8711 62.99 85.0591 63.1781 85.9028 64.074C86.2306 64.4183 86.9676 65.3264 86.7355 66.2091C86.5287 67.0044 85.6383 67.4142 85.1081 67.6556C84.4398 67.9642 83.8684 68.0093 82.5363 68.0885C82.1062 68.1138 81.6695 68.127 81.2383 68.127C81.0513 68.127 80.8621 68.127 80.6734 68.1193L82.5176 63.0125Z" fill="#FFC800"/>
<path d="M80.9188 62.501C80.5795 62.501 80.2192 62.501 79.837 62.501L77.6238 68.6357H78.7067L80.9188 62.501Z" fill="#FFC800"/>
<path d="M77.8795 70.9258L78.5324 69.1152H77.4489L76.7993 70.9165L77.2734 70.9203L77.8795 70.9258Z" fill="#FFC800"/>
<path d="M53.5122 22.1719C60.974 19.0035 68.9127 17.3993 77.1082 17.3993V6.06892e-05H76.9988C66.5933 -0.0130261 56.294 2.09051 46.7271 6.18255L53.5122 22.1719Z" fill="#FFC800"/>
<path d="M114.393 9.67871L106.383 24.119C113.487 28.0518 119.725 33.3747 124.726 39.7708L137.687 29.6064C131.329 21.4768 123.409 14.7013 114.393 9.67871Z" fill="#FFC800"/>
<path d="M137.575 77.0434C137.577 81.7278 137.04 86.3967 135.971 90.9568L151.951 94.7144C154.306 84.6747 154.634 74.2665 152.915 64.0986L136.722 66.8404C137.291 70.2124 137.576 73.6252 137.575 77.0434Z" fill="#FFC800"/>
<path d="M134.557 128.141L122.293 117.224C116.905 123.293 110.35 128.215 103.018 131.693L110.076 146.547C119.383 142.108 127.707 135.849 134.557 128.141Z" fill="#FFC800"/>
<path d="M43.385 146.291C52.6691 150.803 62.7693 153.392 73.0791 153.902L73.9283 137.425C65.8394 137.022 57.9156 134.981 50.6386 131.425L43.385 146.291Z" fill="#FFC800"/>
<path d="M2.06592 94.7638C4.43326 104.777 8.79253 114.211 14.8841 122.504L27.964 113.102C23.2273 106.533 19.8743 99.0698 18.1076 91.1663L2.06592 94.7638Z" fill="#FFC800"/>
<path d="M2.64136 56.9492L18.8787 61.4999C21.0614 53.6966 24.8042 46.4176 29.8805 40.1021L16.4893 29.3772C10.054 37.5358 5.34344 46.9156 2.64136 56.9492Z" fill="#FFC800"/>
<path d="M53.5122 22.1719C60.974 19.0035 68.9127 17.3993 77.1082 17.3993V6.06892e-05H76.9988C66.5933 -0.0130261 56.294 2.09051 46.7271 6.18255L53.5122 22.1719Z" fill="#FFC800"/>
<path d="M54.246 67.54C54.818 67.54 55.3034 67.7307 55.702 68.112C56.118 68.4933 56.326 68.9527 56.326 69.49V84.31C56.326 84.8647 56.1267 85.3327 55.728 85.714C55.3294 86.078 54.8354 86.26 54.246 86.26C53.6567 86.26 53.1627 86.078 52.764 85.714C52.3654 85.3327 52.166 84.8647 52.166 84.31V74.144H51.828L50.892 75.132C50.58 75.4787 50.2594 75.7473 49.93 75.938C49.6007 76.1287 49.228 76.224 48.812 76.224C48.2227 76.224 47.746 76.042 47.382 75.678C47.018 75.314 46.836 74.872 46.836 74.352C46.836 73.7627 47.0874 73.2253 47.59 72.74L52.192 68.502C52.556 68.1727 52.894 67.93 53.206 67.774C53.5354 67.618 53.882 67.54 54.246 67.54ZM67.175 86.52C65.7016 86.52 64.4016 86.2253 63.275 85.636C62.1656 85.0467 61.299 84.232 60.675 83.192C60.0683 82.1347 59.765 80.9387 59.765 79.604V74.196C59.765 72.8613 60.0683 71.674 60.675 70.634C61.299 69.5767 62.1656 68.7533 63.275 68.164C64.4016 67.5747 65.7016 67.28 67.175 67.28C68.6483 67.28 69.9396 67.5747 71.049 68.164C72.1583 68.7533 73.0163 69.5767 73.623 70.634C74.247 71.674 74.559 72.8613 74.559 74.196V79.604C74.559 80.9387 74.247 82.1347 73.623 83.192C73.0163 84.232 72.1583 85.0467 71.049 85.636C69.9396 86.2253 68.6483 86.52 67.175 86.52ZM67.175 82.906C68.1283 82.906 68.891 82.6113 69.463 82.022C70.0523 81.4153 70.347 80.6093 70.347 79.604V74.196C70.347 73.1907 70.0523 72.3933 69.463 71.804C68.891 71.1973 68.1283 70.894 67.175 70.894C66.2043 70.894 65.4243 71.1973 64.835 71.804C64.263 72.3933 63.977 73.1907 63.977 74.196V79.604C63.977 80.6093 64.263 81.4153 64.835 82.022C65.4243 82.6113 66.2043 82.906 67.175 82.906ZM85.2531 86.52C83.7797 86.52 82.4797 86.2253 81.3531 85.636C80.2437 85.0467 79.3771 84.232 78.7531 83.192C78.1464 82.1347 77.8431 80.9387 77.8431 79.604V74.196C77.8431 72.8613 78.1464 71.674 78.7531 70.634C79.3771 69.5767 80.2437 68.7533 81.3531 68.164C82.4797 67.5747 83.7797 67.28 85.2531 67.28C86.7264 67.28 88.0177 67.5747 89.1271 68.164C90.2364 68.7533 91.0944 69.5767 91.7011 70.634C92.3251 71.674 92.6371 72.8613 92.6371 74.196V79.604C92.6371 80.9387 92.3251 82.1347 91.7011 83.192C91.0944 84.232 90.2364 85.0467 89.1271 85.636C88.0177 86.2253 86.7264 86.52 85.2531 86.52ZM85.2531 82.906C86.2064 82.906 86.9691 82.6113 87.5411 82.022C88.1304 81.4153 88.4251 80.6093 88.4251 79.604V74.196C88.4251 73.1907 88.1304 72.3933 87.5411 71.804C86.9691 71.1973 86.2064 70.894 85.2531 70.894C84.2824 70.894 83.5024 71.1973 82.9131 71.804C82.3411 72.3933 82.0551 73.1907 82.0551 74.196V79.604C82.0551 80.6093 82.3411 81.4153 82.9131 82.022C83.5024 82.6113 84.2824 82.906 85.2531 82.906ZM107.439 82.984C107.803 83.4 107.985 83.8593 107.985 84.362C107.985 84.8473 107.812 85.2633 107.465 85.61C107.136 85.9567 106.694 86.13 106.139 86.13C105.515 86.13 104.969 85.844 104.501 85.272L101.043 81.086H99.6392V84.362C99.6392 84.8473 99.4572 85.2633 99.0932 85.61C98.7292 85.9567 98.2785 86.13 97.7412 86.13C97.1865 86.13 96.7272 85.9567 96.3632 85.61C95.9992 85.2633 95.8172 84.8473 95.8172 84.362V69.282C95.8172 68.7967 95.9992 68.3807 96.3632 68.034C96.7272 67.6873 97.1865 67.514 97.7412 67.514C98.2785 67.514 98.7292 67.6873 99.0932 68.034C99.4572 68.3807 99.6392 68.7967 99.6392 69.282V77.81H101.017L104.189 73.624C104.432 73.312 104.666 73.0953 104.891 72.974C105.134 72.8353 105.446 72.766 105.827 72.766C106.399 72.766 106.859 72.9393 107.205 73.286C107.552 73.6327 107.725 74.0487 107.725 74.534C107.725 75.0193 107.569 75.444 107.257 75.808L104.293 79.318L107.439 82.984Z" fill="#131624"/>
</svg>
