<svg width="154" height="154" viewBox="0 0 154 154" fill="none" xmlns="http://www.w3.org/2000/svg">
<path d="M77.0001 154C119.526 154 154 119.526 154 77C154 34.4741 119.526 0 77.0001 0C34.4741 0 0 34.4741 0 77C0 119.526 34.4741 154 77.0001 154Z" fill="#131624"/>
<path d="M76.9988 124.309C103.127 124.309 124.308 103.128 124.308 77C124.308 50.8723 103.127 29.6914 76.9988 29.6914C50.8708 29.6914 29.6899 50.8723 29.6899 77C29.6899 103.128 50.8708 124.309 76.9988 124.309Z" fill="#EE5E5F"/>
<path d="M77.0006 1.33809C118.654 1.39289 152.377 35.2059 152.321 76.8608C152.265 118.515 118.454 152.238 76.7995 152.182C35.1449 152.126 1.42239 118.314 1.47817 76.6597C1.51878 46.3828 19.6597 19.0649 47.5499 7.28322C56.8661 3.34012 66.8835 1.31774 77.0006 1.33809ZM77.0006 0C34.4707 0 0 34.4699 0 76.9994C0 119.53 34.4707 154 77.0006 154C119.53 154 154 119.526 154 76.9994C154 34.4729 119.526 0 77.0006 0Z" fill="#EE5E5F"/>
<path d="M77.0004 18.0427C109.458 18.0854 135.735 44.4332 135.692 76.8915C135.648 109.35 109.302 135.627 76.8438 135.583C44.3856 135.54 18.1084 109.193 18.1518 76.7348C18.1835 53.1425 32.3192 31.8558 54.0519 22.6752C61.3112 19.6027 69.117 18.0268 77.0004 18.0427ZM77.0004 17C43.8603 17 17 43.8597 17 76.9995C17 110.14 43.8603 137 77.0004 137C110.14 137 137 110.137 137 76.9995C137 43.862 110.138 17 77.0004 17Z" fill="#EE5E5F"/>
<path d="M78.635 62.4966C77.4509 62.4922 75.8487 62.4823 73.9155 62.4553L71.6621 68.6357H76.4191L78.635 62.4966ZM72.4409 68.0906L74.295 63.0053C75.494 63.0207 76.6891 63.0317 77.8601 63.0378L76.0401 68.0906H72.4409Z" fill="#EE5E5F"/>
<path d="M68.6221 70.9082L69.6313 70.9049L70.2836 69.1152H69.2689L68.6221 70.9082Z" fill="#EE5E5F"/>
<path d="M66.4414 70.9203L67.7768 70.9148L68.4264 69.1152H67.0932C66.8759 69.7175 66.6592 70.3192 66.4414 70.9203ZM67.4743 69.6603H67.6498L67.3924 70.3714H67.2169L67.4743 69.6603Z" fill="#EE5E5F"/>
<path d="M70.8369 70.9026H72.3335C73.5732 70.9026 74.6616 70.9054 75.5994 70.9114L76.2456 69.1206H71.487L70.8369 70.9026ZM71.8698 69.6624H75.4718L75.2188 70.3636C74.2843 70.3592 73.3158 70.357 72.3351 70.357H71.6174L71.8698 69.6624Z" fill="#EE5E5F"/>
<path d="M86.51 67.9602C86.2603 68.1714 85.9886 68.3557 85.701 68.5113C85.025 68.8765 84.3353 69.0327 82.8124 69.113C82.3663 69.1361 81.8532 69.1532 81.2812 69.1532C80.806 69.1532 80.2906 69.1416 79.739 69.113L79.0889 70.9154C80.7086 70.8741 82.2442 70.6701 83.8959 69.8352C84.86 69.3506 85.7417 68.7181 86.51 67.9602ZM79.8776 70.3373L80.1157 69.6784C80.5046 69.6933 80.8945 69.701 81.2812 69.701C81.8004 69.701 82.3251 69.6872 82.841 69.6597L82.9939 69.6515C81.8911 70.1019 80.8566 70.2708 79.8776 70.3373Z" fill="#EE5E5F"/>
<path d="M82.5682 68.6346C83.8882 68.5565 84.5658 68.5098 85.3369 68.1523C85.9122 67.8872 86.9896 67.3905 87.2652 66.3472C87.599 65.0778 86.5073 63.9151 86.301 63.6995C85.3072 62.644 83.9294 62.4444 83.0241 62.4444C82.7211 62.4433 82.4191 62.4658 82.1194 62.5131L79.9111 68.633C80.3005 68.6566 80.746 68.6731 81.2399 68.6731C81.6497 68.6748 82.0946 68.6627 82.5682 68.6346ZM82.5176 63.0125C82.6551 63.0004 82.8272 62.99 83.023 62.99C83.8711 62.99 85.0591 63.1781 85.9028 64.074C86.2306 64.4183 86.9676 65.3264 86.7355 66.2091C86.5287 67.0044 85.6383 67.4142 85.1081 67.6556C84.4398 67.9642 83.8684 68.0093 82.5363 68.0885C82.1062 68.1138 81.6695 68.127 81.2383 68.127C81.0513 68.127 80.8621 68.127 80.6734 68.1193L82.5176 63.0125Z" fill="#EE5E5F"/>
<path d="M80.9191 62.501C80.5797 62.501 80.2195 62.501 79.8372 62.501L77.624 68.6357H78.707L80.9191 62.501Z" fill="#EE5E5F"/>
<path d="M77.8795 70.9258L78.5324 69.1152H77.4489L76.7993 70.9165L77.2734 70.9203L77.8795 70.9258Z" fill="#EE5E5F"/>
<path d="M53.5122 22.1719C60.974 19.0035 68.9127 17.3993 77.1082 17.3993V6.06892e-05H76.9988C66.5933 -0.0130261 56.294 2.09051 46.7271 6.18255L53.5122 22.1719Z" fill="#EE5E5F"/>
<path d="M114.393 9.67871L106.383 24.119C113.487 28.0518 119.725 33.3747 124.726 39.7708L137.687 29.6064C131.329 21.4768 123.409 14.7013 114.393 9.67871Z" fill="#EE5E5F"/>
<path d="M137.575 77.0434C137.577 81.7278 137.04 86.3967 135.971 90.9568L151.951 94.7144C154.306 84.6747 154.634 74.2665 152.915 64.0986L136.722 66.8404C137.291 70.2124 137.576 73.6252 137.575 77.0434Z" fill="#EE5E5F"/>
<path d="M134.557 128.141L122.293 117.224C116.906 123.293 110.351 128.215 103.019 131.693L110.076 146.547C119.383 142.108 127.707 135.849 134.557 128.141Z" fill="#EE5E5F"/>
<path d="M43.3848 146.291C52.6688 150.803 62.7691 153.392 73.0788 153.902L73.928 137.425C65.8392 137.022 57.9153 134.981 50.6383 131.425L43.3848 146.291Z" fill="#EE5E5F"/>
<path d="M2.06592 94.7638C4.43326 104.777 8.79253 114.211 14.8841 122.504L27.964 113.102C23.2273 106.533 19.8743 99.0698 18.1076 91.1663L2.06592 94.7638Z" fill="#EE5E5F"/>
<path d="M2.6416 56.9492L18.8789 61.4999C21.0616 53.6966 24.8044 46.4176 29.8808 40.1021L16.4895 29.3772C10.0543 37.5358 5.34368 46.9156 2.6416 56.9492Z" fill="#EE5E5F"/>
<path d="M53.5122 22.1719C60.974 19.0035 68.9127 17.3993 77.1082 17.3993V6.06892e-05H76.9988C66.5933 -0.0130261 56.294 2.09051 46.7271 6.18255L53.5122 22.1719Z" fill="#EE5E5F"/>
<path d="M62.1742 74.456C63.4222 74.456 64.5316 74.716 65.5022 75.236C66.4729 75.7387 67.2269 76.4407 67.7642 77.342C68.3189 78.226 68.5962 79.2227 68.5962 80.332C68.5962 81.58 68.3016 82.672 67.7122 83.608C67.1402 84.5267 66.2996 85.246 65.1902 85.766C64.0809 86.2687 62.7549 86.52 61.2122 86.52C59.9642 86.52 58.8029 86.312 57.7282 85.896C56.6709 85.4627 55.8389 84.8993 55.2322 84.206C54.6256 83.5127 54.3222 82.854 54.3222 82.23C54.3222 81.6753 54.5042 81.2247 54.8682 80.878C55.2496 80.514 55.7349 80.332 56.3242 80.332C56.6362 80.332 56.9222 80.41 57.1822 80.566C57.4596 80.7047 57.7716 80.956 58.1182 81.32C58.6209 81.8747 59.1149 82.2647 59.6002 82.49C60.1029 82.698 60.6922 82.802 61.3682 82.802C62.2696 82.802 62.9889 82.5767 63.5262 82.126C64.0636 81.658 64.3322 81.0773 64.3322 80.384C64.3322 79.708 64.0636 79.136 63.5262 78.668C62.9889 78.2 62.2696 77.966 61.3682 77.966C60.9349 77.966 60.5449 78.0007 60.1982 78.07C59.8516 78.122 59.4529 78.226 59.0022 78.382C58.6382 78.5207 58.3349 78.616 58.0922 78.668C57.8496 78.72 57.5896 78.746 57.3122 78.746C56.7402 78.746 56.2462 78.5553 55.8302 78.174C55.4316 77.7927 55.2322 77.3333 55.2322 76.796V69.646C55.2322 69.1433 55.4229 68.71 55.8042 68.346C56.1856 67.982 56.6882 67.8 57.3122 67.8H65.8142C66.4382 67.8 66.9409 67.982 67.3222 68.346C67.7036 68.71 67.8942 69.1433 67.8942 69.646C67.8942 70.1487 67.7036 70.582 67.3222 70.946C66.9409 71.31 66.4382 71.492 65.8142 71.492H59.3922V74.872C60.1549 74.5947 61.0822 74.456 62.1742 74.456ZM78.6769 86.52C77.2036 86.52 75.9036 86.2253 74.7769 85.636C73.6676 85.0467 72.8009 84.232 72.1769 83.192C71.5702 82.1347 71.2669 80.9387 71.2669 79.604V74.196C71.2669 72.8613 71.5702 71.674 72.1769 70.634C72.8009 69.5767 73.6676 68.7533 74.7769 68.164C75.9036 67.5747 77.2036 67.28 78.6769 67.28C80.1502 67.28 81.4416 67.5747 82.5509 68.164C83.6602 68.7533 84.5182 69.5767 85.1249 70.634C85.7489 71.674 86.0609 72.8613 86.0609 74.196V79.604C86.0609 80.9387 85.7489 82.1347 85.1249 83.192C84.5182 84.232 83.6602 85.0467 82.5509 85.636C81.4416 86.2253 80.1502 86.52 78.6769 86.52ZM78.6769 82.906C79.6302 82.906 80.3929 82.6113 80.9649 82.022C81.5542 81.4153 81.8489 80.6093 81.8489 79.604V74.196C81.8489 73.1907 81.5542 72.3933 80.9649 71.804C80.3929 71.1973 79.6302 70.894 78.6769 70.894C77.7062 70.894 76.9262 71.1973 76.3369 71.804C75.7649 72.3933 75.4789 73.1907 75.4789 74.196V79.604C75.4789 80.6093 75.7649 81.4153 76.3369 82.022C76.9262 82.6113 77.7062 82.906 78.6769 82.906ZM100.863 82.984C101.227 83.4 101.409 83.8593 101.409 84.362C101.409 84.8473 101.236 85.2633 100.889 85.61C100.56 85.9567 100.118 86.13 99.563 86.13C98.939 86.13 98.393 85.844 97.925 85.272L94.467 81.086H93.063V84.362C93.063 84.8473 92.881 85.2633 92.517 85.61C92.153 85.9567 91.7024 86.13 91.165 86.13C90.6104 86.13 90.151 85.9567 89.787 85.61C89.423 85.2633 89.241 84.8473 89.241 84.362V69.282C89.241 68.7967 89.423 68.3807 89.787 68.034C90.151 67.6873 90.6104 67.514 91.165 67.514C91.7024 67.514 92.153 67.6873 92.517 68.034C92.881 68.3807 93.063 68.7967 93.063 69.282V77.81H94.441L97.613 73.624C97.8557 73.312 98.0897 73.0953 98.315 72.974C98.5577 72.8353 98.8697 72.766 99.251 72.766C99.823 72.766 100.282 72.9393 100.629 73.286C100.976 73.6327 101.149 74.0487 101.149 74.534C101.149 75.0193 100.993 75.444 100.681 75.808L97.717 79.318L100.863 82.984Z" fill="#131624"/>
</svg>
