<svg width="16" height="16" viewBox="0 0 16 16" fill="none" xmlns="http://www.w3.org/2000/svg">
<path d="M8.00001 16C12.4183 16 16 12.4183 16 8C16 3.58172 12.4183 0 8.00001 0C3.58172 0 0 3.58172 0 8C0 12.4183 3.58172 16 8.00001 16Z" fill="#0F121D"/>
<path d="M7.99992 12.9151C10.7145 12.9151 12.9151 10.7145 12.9151 7.99989C12.9151 5.28533 10.7145 3.08472 7.99992 3.08472C5.28533 3.08472 3.08472 5.28533 3.08472 7.99989C3.08472 10.7145 5.28533 12.9151 7.99992 12.9151Z" fill="#38BB7F"/>
<path d="M8.00005 0.139022C12.3277 0.144716 15.8314 3.65776 15.8256 7.98553C15.8197 12.3133 12.3069 15.8169 7.97917 15.8111C3.65141 15.8053 0.147781 12.2924 0.153576 7.96465C0.157796 4.819 2.04256 1.98077 4.94025 0.756698C5.90816 0.347026 6.94893 0.136908 8.00005 0.139022ZM8.00005 0C3.58137 0 0 3.58129 0 7.99994C0 12.4187 3.58137 16 8.00005 16C12.4187 16 16 12.4183 16 7.99994C16 3.5816 12.4183 0 8.00005 0Z" fill="#38BB7F"/>
<path d="M8.00004 1.87444C11.3722 1.87888 14.1024 4.61631 14.0978 7.98861C14.0933 11.3609 11.356 14.091 7.98377 14.0864C4.61149 14.0819 1.88139 11.3446 1.8859 7.97233C1.88919 5.52118 3.35784 3.30957 5.61578 2.35575C6.37 2.03652 7.18098 1.8728 8.00004 1.87444ZM8.00004 1.76611C4.55691 1.76611 1.76624 4.55673 1.76624 7.99983C1.76624 11.443 4.55691 14.2336 8.00004 14.2336C11.4431 14.2336 14.2338 11.4427 14.2338 7.99983C14.2338 4.55697 11.4429 1.76611 8.00004 1.76611Z" fill="#38BB7F"/>
<path d="M8.17001 6.49306C8.04698 6.4926 7.88053 6.49157 7.67967 6.48877L7.44556 7.13088H7.93978L8.17001 6.49306ZM7.52647 7.07426L7.7191 6.54591C7.84367 6.54751 7.96784 6.54866 8.0895 6.54928L7.90041 7.07426H7.52647Z" fill="#38BB7F"/>
<path d="M7.12964 7.36743L7.23463 7.36709L7.30249 7.18091H7.19693L7.12964 7.36743Z" fill="#38BB7F"/>
<path d="M6.90295 7.36869L7.04187 7.36812L7.10945 7.18091H6.97076C6.94815 7.24356 6.92561 7.30615 6.90295 7.36869ZM7.01041 7.23761H7.02866L7.00188 7.31159H6.98363L7.01041 7.23761Z" fill="#38BB7F"/>
<path d="M7.35974 7.36653H7.51523C7.64403 7.36653 7.75711 7.36682 7.85454 7.36745L7.92168 7.18115H7.42728L7.35974 7.36653ZM7.46706 7.23751H7.84128L7.815 7.31046C7.71791 7.31 7.61728 7.30977 7.5154 7.30977H7.44083L7.46706 7.23751Z" fill="#38BB7F"/>
<path d="M8.98807 7.06104C8.96213 7.08301 8.9339 7.10217 8.90401 7.11837C8.83378 7.15636 8.76213 7.17261 8.6039 7.18096C8.55756 7.18336 8.50424 7.18514 8.44481 7.18514C8.39544 7.18514 8.3419 7.18394 8.28458 7.18096L8.21704 7.36846C8.38533 7.36417 8.54487 7.34294 8.71647 7.25609C8.81664 7.20568 8.90824 7.13988 8.98807 7.06104ZM8.29898 7.30832L8.32373 7.23978C8.36413 7.24132 8.40464 7.24212 8.44481 7.24212C8.49876 7.24212 8.55327 7.24069 8.60687 7.23783L8.62276 7.23698C8.50818 7.28384 8.4007 7.3014 8.29898 7.30832Z" fill="#38BB7F"/>
<path d="M8.57855 7.13094C8.71569 7.12283 8.78609 7.11797 8.8662 7.08083C8.92598 7.05328 9.03792 7.00168 9.06655 6.89328C9.10123 6.7614 8.9878 6.6406 8.96638 6.6182C8.86312 6.50854 8.71998 6.4878 8.62592 6.4878C8.59443 6.48768 8.56306 6.49003 8.53192 6.49494L8.30249 7.13077C8.34295 7.13323 8.38923 7.13494 8.44055 7.13494C8.48312 7.13511 8.52935 7.13385 8.57855 7.13094ZM8.57329 6.54683C8.58758 6.54557 8.60546 6.54448 8.6258 6.54448C8.71392 6.54448 8.83735 6.56403 8.925 6.65711C8.95906 6.69288 9.03563 6.78723 9.01152 6.87894C8.99003 6.96157 8.89752 7.00414 8.84243 7.02923C8.773 7.06128 8.71363 7.06597 8.57523 7.0742C8.53055 7.07683 8.48518 7.0782 8.44038 7.0782C8.42095 7.0782 8.40129 7.0782 8.38169 7.0774L8.57329 6.54683Z" fill="#38BB7F"/>
<path d="M8.4076 6.49365C8.3723 6.49365 8.33482 6.49365 8.29506 6.49365L8.06482 7.13102H8.17748L8.4076 6.49365Z" fill="#38BB7F"/>
<path d="M8.0915 7.36926L8.15941 7.18091H8.0467L7.97913 7.36829L8.02845 7.36869L8.0915 7.36926Z" fill="#38BB7F"/>
<path d="M5.55969 2.30357C6.33494 1.97439 7.15973 1.80772 8.01122 1.80772V6.30537e-06H7.99985C6.91876 -0.00135336 5.84871 0.217195 4.85474 0.642343L5.55969 2.30357Z" fill="#38BB7F"/>
<path d="M11.8849 1.00537L11.0527 2.50566C11.7907 2.91427 12.4389 3.4673 12.9585 4.13182L14.305 3.07578C13.6445 2.23114 12.8216 1.52719 11.8849 1.00537Z" fill="#38BB7F"/>
<path d="M14.2933 8.00458C14.2936 8.49127 14.2377 8.97635 14.1267 9.45012L15.7869 9.84053C16.0316 8.79744 16.0657 7.71607 15.8872 6.65967L14.2047 6.94453C14.2639 7.29487 14.2935 7.64944 14.2933 8.00458Z" fill="#38BB7F"/>
<path d="M13.9799 13.3134L12.7056 12.1792C12.1459 12.8098 11.4649 13.3211 10.7031 13.6825L11.4364 15.2258C12.4034 14.7645 13.2682 14.1142 13.9799 13.3134Z" fill="#38BB7F"/>
<path d="M4.50757 15.1993C5.47214 15.6681 6.52152 15.9371 7.59266 15.99L7.68089 14.2782C6.84049 14.2363 6.01724 14.0242 5.26119 13.6548L4.50757 15.1993Z" fill="#38BB7F"/>
<path d="M0.2146 9.84569C0.460557 10.886 0.913468 11.8662 1.54636 12.7278L2.90531 11.751C2.41318 11.0684 2.06482 10.2931 1.88127 9.47192L0.2146 9.84569Z" fill="#38BB7F"/>
<path d="M0.274414 5.91687L1.9614 6.38967C2.18818 5.57894 2.57704 4.82267 3.10445 4.16653L1.71316 3.05225C1.04456 3.89989 0.555149 4.87442 0.274414 5.91687Z" fill="#38BB7F"/>
<path d="M5.55969 2.30357C6.33494 1.97439 7.15973 1.80772 8.01122 1.80772V6.30537e-06H7.99985C6.91876 -0.00135336 5.84871 0.217195 4.85474 0.642343L5.55969 2.30357Z" fill="#38BB7F"/>
<path d="M7.86726 9.77791C7.55519 9.77791 7.28277 9.6953 7.04897 9.53236C6.81518 9.36942 6.64505 9.15141 6.53755 8.88176C6.43109 8.61211 6.40812 8.32066 6.47075 8.0074L7.08551 4.85651C7.10325 4.74406 7.15439 4.64768 7.23893 4.56621C7.32348 4.48589 7.43307 4.44458 7.56667 4.44458C7.66895 4.44458 7.7608 4.47441 7.84012 4.53293C7.92049 4.59145 7.97789 4.66718 8.01338 4.76013C8.04887 4.85307 8.05513 4.9506 8.03321 5.05387L7.81925 6.14854H8.07287L7.76602 6.29541C7.81925 6.20706 7.89023 6.12903 7.97999 6.06018C8.0687 5.99134 8.16681 5.94085 8.27431 5.90643C8.38077 5.872 8.49454 5.85479 8.61457 5.85479C8.86402 5.85479 9.08425 5.9397 9.2763 6.10838C9.4673 6.27705 9.60716 6.5008 9.69379 6.78078C9.78042 7.05961 9.78877 7.35106 9.71675 7.65514L9.55602 8.44802C9.49757 8.71193 9.38902 8.94486 9.22828 9.14567C9.06755 9.34647 8.87133 9.50138 8.63649 9.61153C8.4027 9.72169 8.14594 9.77676 7.86517 9.77676L7.86726 9.77791ZM7.93406 8.88864C8.04574 8.88864 8.14803 8.8634 8.24092 8.81176C8.33381 8.76013 8.41522 8.68784 8.48515 8.59489C8.55403 8.50195 8.59996 8.39409 8.62188 8.27131L8.76905 7.50023C8.79618 7.35795 8.78992 7.22943 8.75234 7.11469C8.71477 6.99994 8.65319 6.90815 8.56865 6.8393C8.4841 6.77046 8.38182 6.73603 8.26179 6.73603C8.15533 6.73603 8.05513 6.76242 7.96119 6.81635C7.86726 6.87028 7.78794 6.94372 7.72114 7.03666C7.65434 7.12961 7.60946 7.23746 7.58754 7.36024L7.44037 8.13133C7.41324 8.26902 7.41741 8.39524 7.45081 8.51343C7.48421 8.63047 7.5437 8.72226 7.62824 8.78881C7.71279 8.85537 7.81507 8.88749 7.9351 8.88749L7.93406 8.88864Z" fill="#0F121D"/>
<path d="M5.81917 9.78618C6.08878 10.0774 6.39531 10.2922 6.72757 10.4349C7.05871 10.5777 7.41223 10.6474 7.76686 10.6485C8.1215 10.6485 8.47502 10.5788 8.80616 10.4349C9.13842 10.2922 9.44495 10.0774 9.71456 9.78618C9.72574 9.77362 9.74364 9.77362 9.75595 9.78504C9.7649 9.79304 9.76714 9.8056 9.76378 9.81588C9.62953 10.2065 9.33531 10.5423 8.97732 10.7673C8.61821 10.9934 8.19198 11.1099 7.76798 11.1099C7.34399 11.1099 6.91775 10.9934 6.55864 10.7673C6.20065 10.5434 5.90643 10.2076 5.77219 9.81588C5.76659 9.80103 5.77442 9.7839 5.79008 9.77819C5.80127 9.77476 5.81358 9.77819 5.82029 9.78618H5.81917Z" fill="#0F121D"/>
</svg>
