<svg width="154" height="154" viewBox="0 0 154 154" fill="none" xmlns="http://www.w3.org/2000/svg">
<path d="M77.0001 154C119.526 154 154 119.526 154 77C154 34.4741 119.526 0 77.0001 0C34.4741 0 0 34.4741 0 77C0 119.526 34.4741 154 77.0001 154Z" fill="#131624"/>
<path d="M76.9988 124.309C103.127 124.309 124.308 103.128 124.308 77C124.308 50.8723 103.127 29.6914 76.9988 29.6914C50.8708 29.6914 29.6899 50.8723 29.6899 77C29.6899 103.128 50.8708 124.309 76.9988 124.309Z" fill="#DA75EB"/>
<path d="M77.0006 1.33809C118.654 1.39289 152.377 35.2059 152.321 76.8608C152.265 118.515 118.454 152.238 76.7995 152.182C35.1449 152.126 1.42239 118.314 1.47817 76.6597C1.51878 46.3828 19.6597 19.0649 47.5499 7.28322C56.8661 3.34012 66.8835 1.31774 77.0006 1.33809ZM77.0006 0C34.4707 0 0 34.4699 0 76.9994C0 119.53 34.4707 154 77.0006 154C119.53 154 154 119.526 154 76.9994C154 34.4729 119.526 0 77.0006 0Z" fill="#DA75EB"/>
<path d="M77.0004 18.0427C109.458 18.0854 135.735 44.4332 135.692 76.8915C135.648 109.35 109.302 135.627 76.8438 135.583C44.3856 135.54 18.1084 109.193 18.1518 76.7348C18.1835 53.1425 32.3192 31.8558 54.0519 22.6752C61.3112 19.6027 69.117 18.0268 77.0004 18.0427ZM77.0004 17C43.8603 17 17 43.8597 17 76.9995C17 110.14 43.8603 137 77.0004 137C110.14 137 137 110.137 137 76.9995C137 43.862 110.138 17 77.0004 17Z" fill="#DA75EB"/>
<path d="M78.635 62.4966C77.4509 62.4922 75.8487 62.4823 73.9155 62.4553L71.6621 68.6357H76.4191L78.635 62.4966ZM72.4409 68.0906L74.295 63.0053C75.494 63.0207 76.6891 63.0317 77.8601 63.0378L76.0401 68.0906H72.4409Z" fill="#DA75EB"/>
<path d="M68.6221 70.9082L69.6313 70.9049L70.2836 69.1152H69.2689L68.6221 70.9082Z" fill="#DA75EB"/>
<path d="M66.4414 70.9203L67.7768 70.9148L68.4264 69.1152H67.0932C66.8759 69.7175 66.6592 70.3192 66.4414 70.9203ZM67.4743 69.6603H67.6498L67.3924 70.3714H67.2169L67.4743 69.6603Z" fill="#DA75EB"/>
<path d="M70.8369 70.9026H72.3335C73.5732 70.9026 74.6616 70.9054 75.5994 70.9114L76.2456 69.1206H71.487L70.8369 70.9026ZM71.8698 69.6624H75.4718L75.2188 70.3636C74.2843 70.3592 73.3158 70.357 72.3351 70.357H71.6174L71.8698 69.6624Z" fill="#DA75EB"/>
<path d="M86.51 67.9602C86.2603 68.1714 85.9886 68.3557 85.701 68.5113C85.025 68.8765 84.3353 69.0327 82.8124 69.113C82.3663 69.1361 81.8532 69.1532 81.2812 69.1532C80.806 69.1532 80.2906 69.1416 79.739 69.113L79.0889 70.9154C80.7086 70.8741 82.2442 70.6701 83.8959 69.8352C84.86 69.3506 85.7417 68.7181 86.51 67.9602ZM79.8776 70.3373L80.1157 69.6784C80.5046 69.6933 80.8945 69.701 81.2812 69.701C81.8004 69.701 82.3251 69.6872 82.841 69.6597L82.9939 69.6515C81.8911 70.1019 80.8566 70.2708 79.8776 70.3373Z" fill="#DA75EB"/>
<path d="M82.5682 68.6346C83.8882 68.5565 84.5658 68.5098 85.3369 68.1523C85.9122 67.8872 86.9896 67.3905 87.2652 66.3472C87.599 65.0778 86.5073 63.9151 86.301 63.6995C85.3072 62.644 83.9294 62.4444 83.0241 62.4444C82.7211 62.4433 82.4191 62.4658 82.1194 62.5131L79.9111 68.633C80.3005 68.6566 80.746 68.6731 81.2399 68.6731C81.6497 68.6748 82.0946 68.6627 82.5682 68.6346ZM82.5176 63.0125C82.6551 63.0004 82.8272 62.99 83.023 62.99C83.8711 62.99 85.0591 63.1781 85.9028 64.074C86.2306 64.4183 86.9676 65.3264 86.7355 66.2091C86.5287 67.0044 85.6383 67.4142 85.1081 67.6556C84.4398 67.9642 83.8684 68.0093 82.5363 68.0885C82.1062 68.1138 81.6695 68.127 81.2383 68.127C81.0513 68.127 80.8621 68.127 80.6734 68.1193L82.5176 63.0125Z" fill="#DA75EB"/>
<path d="M80.9191 62.501C80.5797 62.501 80.2195 62.501 79.8372 62.501L77.624 68.6357H78.707L80.9191 62.501Z" fill="#DA75EB"/>
<path d="M77.8795 70.9258L78.5324 69.1152H77.4489L76.7993 70.9165L77.2734 70.9203L77.8795 70.9258Z" fill="#DA75EB"/>
<path d="M53.5122 22.1719C60.974 19.0035 68.9127 17.3993 77.1082 17.3993V6.06892e-05H76.9988C66.5933 -0.0130261 56.294 2.09051 46.7271 6.18255L53.5122 22.1719Z" fill="#DA75EB"/>
<path d="M114.393 9.67871L106.383 24.119C113.487 28.0518 119.725 33.3747 124.726 39.7708L137.687 29.6064C131.329 21.4768 123.409 14.7013 114.393 9.67871Z" fill="#DA75EB"/>
<path d="M137.574 77.0434C137.577 81.7278 137.039 86.3967 135.971 90.9568L151.95 94.7144C154.306 84.6747 154.633 74.2665 152.915 64.0986L136.721 66.8404C137.291 70.2124 137.576 73.6252 137.574 77.0434Z" fill="#DA75EB"/>
<path d="M134.557 128.141L122.293 117.224C116.906 123.293 110.351 128.215 103.019 131.693L110.076 146.547C119.383 142.108 127.707 135.849 134.557 128.141Z" fill="#DA75EB"/>
<path d="M43.3848 146.291C52.6688 150.803 62.7691 153.392 73.0788 153.902L73.928 137.425C65.8392 137.022 57.9153 134.981 50.6383 131.425L43.3848 146.291Z" fill="#DA75EB"/>
<path d="M2.06592 94.7638C4.43326 104.777 8.79253 114.211 14.8841 122.504L27.964 113.102C23.2273 106.533 19.8743 99.0698 18.1076 91.1663L2.06592 94.7638Z" fill="#DA75EB"/>
<path d="M2.6416 56.9492L18.8789 61.4999C21.0616 53.6966 24.8044 46.4176 29.8808 40.1021L16.4895 29.3772C10.0543 37.5358 5.34368 46.9156 2.6416 56.9492Z" fill="#DA75EB"/>
<path d="M53.5122 22.1719C60.974 19.0035 68.9127 17.3993 77.1082 17.3993V6.06892e-05H76.9988C66.5933 -0.0130261 56.294 2.09051 46.7271 6.18255L53.5122 22.1719Z" fill="#DA75EB"/>
<path d="M62.7851 67.54C63.3571 67.54 63.8424 67.7307 64.2411 68.112C64.6571 68.4933 64.8651 68.9527 64.8651 69.49V84.31C64.8651 84.8647 64.6658 85.3327 64.2671 85.714C63.8684 86.078 63.3744 86.26 62.7851 86.26C62.1958 86.26 61.7018 86.078 61.3031 85.714C60.9044 85.3327 60.7051 84.8647 60.7051 84.31V74.144H60.3671L59.4311 75.132C59.1191 75.4787 58.7984 75.7473 58.4691 75.938C58.1398 76.1287 57.7671 76.224 57.3511 76.224C56.7618 76.224 56.2851 76.042 55.9211 75.678C55.5571 75.314 55.3751 74.872 55.3751 74.352C55.3751 73.7627 55.6264 73.2253 56.1291 72.74L60.7311 68.502C61.0951 68.1727 61.4331 67.93 61.7451 67.774C62.0744 67.618 62.4211 67.54 62.7851 67.54ZM75.714 86.52C74.2407 86.52 72.9407 86.2253 71.814 85.636C70.7047 85.0467 69.838 84.232 69.214 83.192C68.6073 82.1347 68.304 80.9387 68.304 79.604V74.196C68.304 72.8613 68.6073 71.674 69.214 70.634C69.838 69.5767 70.7047 68.7533 71.814 68.164C72.9407 67.5747 74.2407 67.28 75.714 67.28C77.1873 67.28 78.4787 67.5747 79.588 68.164C80.6973 68.7533 81.5553 69.5767 82.162 70.634C82.786 71.674 83.098 72.8613 83.098 74.196V79.604C83.098 80.9387 82.786 82.1347 82.162 83.192C81.5553 84.232 80.6973 85.0467 79.588 85.636C78.4787 86.2253 77.1873 86.52 75.714 86.52ZM75.714 82.906C76.6673 82.906 77.43 82.6113 78.002 82.022C78.5913 81.4153 78.886 80.6093 78.886 79.604V74.196C78.886 73.1907 78.5913 72.3933 78.002 71.804C77.43 71.1973 76.6673 70.894 75.714 70.894C74.7433 70.894 73.9633 71.1973 73.374 71.804C72.802 72.3933 72.516 73.1907 72.516 74.196V79.604C72.516 80.6093 72.802 81.4153 73.374 82.022C73.9633 82.6113 74.7433 82.906 75.714 82.906ZM97.9001 82.984C98.2641 83.4 98.4461 83.8593 98.4461 84.362C98.4461 84.8473 98.2728 85.2633 97.9261 85.61C97.5968 85.9567 97.1548 86.13 96.6001 86.13C95.9761 86.13 95.4301 85.844 94.9621 85.272L91.5041 81.086H90.1001V84.362C90.1001 84.8473 89.9181 85.2633 89.5541 85.61C89.1901 85.9567 88.7395 86.13 88.2021 86.13C87.6475 86.13 87.1881 85.9567 86.8241 85.61C86.4601 85.2633 86.2781 84.8473 86.2781 84.362V69.282C86.2781 68.7967 86.4601 68.3807 86.8241 68.034C87.1881 67.6873 87.6475 67.514 88.2021 67.514C88.7395 67.514 89.1901 67.6873 89.5541 68.034C89.9181 68.3807 90.1001 68.7967 90.1001 69.282V77.81H91.4781L94.6501 73.624C94.8928 73.312 95.1268 73.0953 95.3521 72.974C95.5948 72.8353 95.9068 72.766 96.2881 72.766C96.8601 72.766 97.3195 72.9393 97.6661 73.286C98.0128 73.6327 98.1861 74.0487 98.1861 74.534C98.1861 75.0193 98.0301 75.444 97.7181 75.808L94.7541 79.318L97.9001 82.984Z" fill="#131624"/>
</svg>
