<svg width="16" height="16" viewBox="0 0 16 16" fill="none" xmlns="http://www.w3.org/2000/svg">
    <g clip-path="url(#clip0_5356_2608)">
        <path fill-rule="evenodd" clip-rule="evenodd"
            d="M11.2 3.2C11.2 2.316 10.484 1.6 9.6 1.6H6.4C5.516 1.6 4.8 2.316 4.8 3.2V4.8V7.2V8.8V11.2V12.8C4.8 13.684 5.516 14.4 6.4 14.4H9.6C10.484 14.4 11.2 13.684 11.2 12.8V11.2V8.8V7.2V4.8V3.2ZM12.8 4.8V7.2H15.2C15.6416 7.2 16 7.5584 16 8C16 8.4416 15.6416 8.8 15.2 8.8H12.8V11.2C14.5672 11.2 16 12.6328 16 14.4V15.2C16 15.6416 15.6416 16 15.2 16C14.7584 16 14.4 15.6416 14.4 15.2V14.4C14.4 13.516 13.684 12.8 12.8 12.8C12.8 14.5672 11.3672 16 9.6 16H6.4C4.6328 16 3.2 14.5672 3.2 12.8C2.316 12.8 1.6 13.516 1.6 14.4V15.2C1.6 15.6416 1.2416 16 0.8 16C0.3584 16 0 15.6416 0 15.2V14.4C0 12.6328 1.4328 11.2 3.2 11.2V8.8H0.8C0.3584 8.8 0 8.4416 0 8C0 7.5584 0.3584 7.2 0.8 7.2H3.2V4.8C1.4328 4.8 0 3.3672 0 1.6V0.8C0 0.3584 0.3584 0 0.8 0C1.2416 0 1.6 0.3584 1.6 0.8V1.6C1.6 2.484 2.316 3.2 3.2 3.2C3.2 1.4328 4.6328 0 6.4 0H9.6C11.3672 0 12.8 1.4328 12.8 3.2C13.684 3.2 14.4 2.484 14.4 1.6V0.8C14.4 0.3584 14.7584 0 15.2 0C15.6416 0 16 0.3584 16 0.8V1.6C16 3.3672 14.5672 4.8 12.8 4.8ZM9.6 11.2C9.1584 11.2 8.8 11.5584 8.8 12C8.8 12.4416 9.1584 12.8 9.6 12.8C10.0416 12.8 10.4 12.4416 10.4 12C10.4 11.5584 10.0416 11.2 9.6 11.2ZM7.2 12C7.2 12.4416 6.8416 12.8 6.4 12.8C5.9584 12.8 5.6 12.4416 5.6 12C5.6 11.5584 5.9584 11.2 6.4 11.2C6.8416 11.2 7.2 11.5584 7.2 12Z"
            fill="#FFC800" />
    </g>
    <defs>
        <clipPath id="clip0_5356_2608">
            <rect width="16" height="16" rx="8" fill="white" />
        </clipPath>
    </defs>
</svg>