<svg width="23" height="30" viewBox="0 0 23 30" fill="none" xmlns="http://www.w3.org/2000/svg">
    <path
            d="M9.64663 6.60931C9.53998 6.70931 9.47998 6.84929 9.47998 6.97595C9.47998 7.10261 9.53998 7.2426 9.64663 7.34259C9.78662 7.48924 9.86662 7.50924 10.3066 7.50924H10.8132L10.5932 7.79588C10.1466 8.3825 10.0533 8.70914 10.0266 9.75573L9.99994 10.709H10.5332H11.0665L11.0932 9.85572C11.1198 8.86247 11.1932 8.68248 11.7731 8.10919L12.1464 7.74922L12.5197 8.10919C13.0997 8.68248 13.173 8.86247 13.1997 9.85572L13.2263 10.709H13.7596H14.2929L14.2663 9.75573C14.2463 8.88246 14.2329 8.77581 14.0596 8.40917C13.9596 8.18919 13.7863 7.89588 13.673 7.75589L13.473 7.50924H13.9796C14.4263 7.50924 14.5062 7.48924 14.6462 7.34259C14.7529 7.2426 14.8129 7.10261 14.8129 6.97595C14.8129 6.84929 14.7529 6.70931 14.6462 6.60931L14.4862 6.44266H12.1464H9.80662L9.64663 6.60931Z"
            fill="#131624"/>
    <path
            d="M12.78 0.675945C12.5 0.829266 12.3133 1.00925 11.9467 1.49588C11.4601 2.12916 11.3334 2.20916 10.8135 2.20916C10.4135 2.20916 10.3468 2.18916 9.96686 1.92251C9.74021 1.76919 9.5069 1.64253 9.45357 1.64253C9.21359 1.64253 8.44699 1.98251 8.24034 2.18249C7.92036 2.48913 7.8537 2.74911 7.8937 3.53572C7.95369 4.65563 8.43365 5.84886 9.14693 6.66213L9.43357 6.98211L6.86711 9.5619C5.46056 10.9818 4.154 12.3483 3.96734 12.6083C3.23407 13.6282 2.62079 14.9348 2.31414 16.1414C2.06083 17.1346 1.99417 17.8212 2.0275 19.0745C2.0675 20.3077 2.18082 20.9677 2.56079 22.0742C2.80744 22.8075 3.39406 23.9741 3.51405 23.9741C5.15446 25.048 5.6285 25.5221 7.49373 26.2072C7.54039 26.2472 8.6603 26.8672 9.9802 27.5738L12.3733 28.8604L13.0133 28.8204C15.1798 28.687 17.4796 27.6538 19.1328 26.0739C20.6393 24.6407 21.6326 22.8675 22.0926 20.7943C22.2992 19.8944 22.3125 17.5813 22.1192 16.708C21.7792 15.1415 21.1193 13.6549 20.2394 12.4883C20.0661 12.2617 18.7862 10.9285 17.3929 9.52857L14.8598 6.98211L15.4731 6.33549C15.993 5.78887 16.1397 5.57555 16.413 5.0156C16.753 4.30232 16.9463 3.59571 16.9463 3.04909V2.70912H16.1664H15.3798L14.9465 1.85585C14.4065 0.795936 14.2065 0.622616 13.4599 0.589286C13.1133 0.575953 12.9266 0.602617 12.78 0.675945ZM14.6465 6.6088C14.7531 6.70879 14.8131 6.84878 14.8131 6.97544C14.8131 7.1021 14.7531 7.24208 14.6465 7.34208C14.5065 7.48873 14.4265 7.50873 13.9799 7.50873H13.4732L13.6732 7.75538C13.7866 7.89537 13.9599 8.18868 14.0599 8.40866C14.2332 8.7753 14.2465 8.88195 14.2665 9.75522L14.2932 10.7085H13.7599H13.2266L13.1999 9.85521C13.1733 8.86196 13.0999 8.68197 12.52 8.10868L12.1467 7.74871L11.7734 8.10868C11.1934 8.68197 11.1201 8.86196 11.0934 9.85521L11.0668 10.7085H10.5335H10.0002L10.0269 9.75522C10.0535 8.70863 10.1468 8.38199 10.5935 7.79538L10.8135 7.50873H10.3068C9.86687 7.50873 9.78688 7.48873 9.64689 7.34208C9.54023 7.24208 9.48024 7.1021 9.48024 6.97544C9.48024 6.84878 9.54023 6.70879 9.64689 6.6088L9.80688 6.44215H12.1467H14.4865L14.6465 6.6088Z"
            fill="#FFC800"/>
    <path
            d="M11.9798 22.6782C11.3873 22.6782 10.8701 22.5215 10.4262 22.2126C9.98231 21.9036 9.65931 21.4903 9.45521 20.979C9.25308 20.4677 9.20949 19.915 9.32838 19.3211L10.4955 13.3465C10.5292 13.1333 10.6263 12.9505 10.7868 12.7961C10.9473 12.6438 11.1554 12.5654 11.4091 12.5654C11.6033 12.5654 11.7776 12.622 11.9282 12.733C12.0808 12.8439 12.1898 12.9875 12.2572 13.1638C12.3246 13.34 12.3365 13.5249 12.2948 13.7207L11.8886 15.7964H12.3701L11.7875 16.0749C11.8886 15.9073 12.0234 15.7594 12.1938 15.6288C12.3622 15.4983 12.5485 15.4026 12.7526 15.3373C12.9547 15.272 13.1707 15.2394 13.3986 15.2394C13.8722 15.2394 14.2903 15.4004 14.6549 15.7202C15.0176 16.0401 15.2831 16.4643 15.4476 16.9952C15.612 17.5239 15.6279 18.0765 15.4912 18.6531L15.186 20.1565C15.075 20.657 14.8689 21.0986 14.5638 21.4794C14.2586 21.8601 13.8861 22.1539 13.4402 22.3627C12.9963 22.5716 12.5089 22.676 11.9758 22.676L11.9798 22.6782ZM12.1066 20.992C12.3186 20.992 12.5128 20.9441 12.6892 20.8462C12.8655 20.7483 13.0201 20.6113 13.1529 20.435C13.2837 20.2588 13.3709 20.0543 13.4125 19.8215L13.6919 18.3594C13.7434 18.0896 13.7315 17.8459 13.6602 17.6283C13.5888 17.4108 13.4719 17.2367 13.3114 17.1062C13.1509 16.9756 12.9567 16.9103 12.7288 16.9103C12.5267 16.9103 12.3364 16.9604 12.1581 17.0627C11.9798 17.1649 11.8292 17.3042 11.7023 17.4804C11.5755 17.6566 11.4903 17.8611 11.4487 18.0939L11.1693 19.556C11.1178 19.8171 11.1257 20.0565 11.1891 20.2806C11.2525 20.5025 11.3655 20.6765 11.526 20.8027C11.6865 20.9289 11.8807 20.9898 12.1086 20.9898L12.1066 20.992Z"
            fill="#0F121D"/>
    <path
            d="M8.0914 22.6959C8.60328 23.2481 9.18525 23.6553 9.81607 23.926C10.4448 24.1967 11.1159 24.3288 11.7892 24.331C12.4625 24.331 13.1337 24.1989 13.7624 23.926C14.3932 23.6553 14.9752 23.2481 15.4871 22.6959C15.5083 22.6721 15.5423 22.6721 15.5657 22.6937C15.5827 22.7089 15.5869 22.7327 15.5805 22.7522C15.3257 23.4929 14.7671 24.1296 14.0874 24.5562C13.4056 24.985 12.5964 25.2059 11.7914 25.2059C10.9864 25.2059 10.1771 24.985 9.49535 24.5562C8.81568 24.1317 8.25708 23.495 8.0022 22.7522C7.99158 22.724 8.00644 22.6916 8.03618 22.6807C8.05742 22.6742 8.08079 22.6807 8.09353 22.6959H8.0914Z"
            fill="#0F121D"/>
    <path
            d="M3.56813 21.6686L3.56813 21.6686L3.56553 21.67C3.13378 21.9077 2.7251 22.1288 2.41452 22.2941C2.2594 22.3767 2.12763 22.446 2.0292 22.4967C1.95097 22.537 1.85194 22.588 1.79545 22.6085L1.77104 22.6174L1.75708 22.6209C1.75322 22.6223 1.74485 22.6255 1.73107 22.6314C1.70324 22.6431 1.66581 22.6602 1.62052 22.6821C1.53023 22.7257 1.4207 22.7828 1.3152 22.8417L1.29 22.8558L1.26334 22.8669L0.914307 23.0121V25.5228V27.9635L6.2243 29.1113C8.88593 29.1113 10.2444 29.1095 10.9652 29.0923C11.3329 29.0835 11.5102 29.0711 11.6034 29.0575C11.6253 29.0543 11.6385 29.0516 11.6452 29.05C11.6454 29.0499 11.6455 29.0498 11.6457 29.0497C11.943 28.8656 11.982 28.4308 11.7087 28.1922C11.7051 28.1902 11.6837 28.1763 11.633 28.147C11.5704 28.1107 11.4847 28.0631 11.3814 28.0074C11.1753 27.8962 10.9072 27.7573 10.629 27.6198L10.6269 27.6187C10.1733 27.3919 8.83865 26.6885 7.61404 26.0363C7.00023 25.7094 6.41129 25.3938 5.97039 25.1552C5.75014 25.036 5.56567 24.9354 5.43317 24.8619C5.36722 24.8253 5.31218 24.7944 5.27136 24.7708C5.25129 24.7592 5.23188 24.7478 5.21524 24.7375C5.20714 24.7325 5.19664 24.7259 5.18569 24.7186C5.18553 24.7185 5.18532 24.7183 5.18506 24.7181C5.18138 24.7157 5.16717 24.7062 5.14911 24.6919C5.05372 24.6174 5.0078 24.5259 4.9866 24.4672C4.9635 24.4032 4.95854 24.3487 4.95714 24.3195C4.95436 24.2616 4.96233 24.2158 4.96538 24.1992C4.9726 24.1598 4.98323 24.1267 4.98823 24.1116C5.00015 24.0754 5.01591 24.0356 5.03076 23.9996C5.0619 23.9242 5.10698 23.8228 5.16059 23.7059C5.26864 23.4702 5.42045 23.1515 5.58776 22.8068L5.58774 22.8068L5.58971 22.8029C5.82221 22.3345 5.96827 22.0207 6.05563 21.8045C6.1363 21.605 6.14864 21.5307 6.15051 21.5194C6.15081 21.5176 6.15084 21.5174 6.15084 21.5186C6.15084 21.1206 5.78958 20.778 5.43458 20.7853L5.43458 20.7854H5.42428C5.34716 20.7854 5.26609 20.7896 5.20097 20.7957C5.18041 20.7977 5.16312 20.7996 5.14931 20.8014C5.12636 20.8133 5.09602 20.8293 5.05844 20.8493C4.96965 20.8966 4.84611 20.9634 4.69636 21.0451C4.39717 21.2084 3.99694 21.4293 3.56813 21.6686Z"
            fill="white" stroke="black"/>
</svg>