<svg width="20" height="20" viewBox="0 0 20 20" fill="none" xmlns="http://www.w3.org/2000/svg">
    <g clip-path="url(#clip0_159_14325)">
        <path fill-rule="evenodd" clip-rule="evenodd"
              d="M8.88417 6.55145C8.6785 6.70592 8.54167 6.92741 8.54167 7.29134C8.54167 7.75157 8.16857 8.12467 7.70833 8.12467C7.2481 8.12467 6.875 7.75157 6.875 7.29134C6.875 6.40527 7.25682 5.68927 7.88337 5.21874C8.48225 4.76898 9.24725 4.58301 10 4.58301C10.8982 4.58301 11.6558 4.85316 12.203 5.3705C12.7459 5.88385 13.0038 6.56731 13.0442 7.25009C13.1236 8.58651 12.3867 10.0569 11.0384 10.8273C10.9158 10.8974 10.84 10.9548 10.7941 10.9962C10.8986 11.3235 10.7924 11.6951 10.5028 11.9142C10.1358 12.1919 9.61325 12.1195 9.3355 11.7525C9.3355 11.7525 9.33592 11.7531 9.33467 11.7514L9.33375 11.7503C9.13383 11.4813 9.05417 11.1288 9.09475 10.7984C9.1645 10.2305 9.56058 9.75226 10.2116 9.38034C11.0131 8.92226 11.4221 8.04893 11.3806 7.34876C11.3607 7.01322 11.2415 6.75514 11.0579 6.58152C10.8785 6.41191 10.5601 6.24967 10 6.24967C9.49842 6.24967 9.11758 6.3762 8.88417 6.55145Z"
              fill="white"/>
        <path
                d="M10 15.417C10.6903 15.417 11.25 14.8573 11.25 14.167C11.25 13.4767 10.6903 12.917 10 12.917C9.30967 12.917 8.75 13.4767 8.75 14.167C8.75 14.8573 9.30967 15.417 10 15.417Z"
                fill="white"/>
        <path fill-rule="evenodd" clip-rule="evenodd"
              d="M0.833252 9.99967C0.833252 4.93707 4.93731 0.833008 9.99992 0.833008C15.0625 0.833008 19.1666 4.93707 19.1666 9.99967C19.1666 15.0623 15.0625 19.1663 9.99992 19.1663C4.93731 19.1663 0.833252 15.0623 0.833252 9.99967ZM9.99992 2.49967C5.85778 2.49967 2.49992 5.85754 2.49992 9.99967C2.49992 14.1418 5.85778 17.4997 9.99992 17.4997C14.1421 17.4997 17.4999 14.1418 17.4999 9.99967C17.4999 5.85754 14.1421 2.49967 9.99992 2.49967Z"
              fill="white"/>
    </g>
    <defs>
        <clipPath id="clip0_159_14325">
            <rect width="20" height="20" fill="white"/>
        </clipPath>
    </defs>
</svg>